<svg xmlns="http://www.w3.org/2000/svg" viewBox="-16 -16 152 152" role="img" aria-label="AURAQIS logo concept P2-05 Strata"><rect class="bg" x="-16" y="-16" width="152" height="152" fill="#f2f1ed"/><g class="fit"><g transform="translate(0 0) scale(1)"><g><path d="M16 82 L60 60 L104 82 L60 104 Z" fill="#8fae80"/><path d="M16 82 L60 104 V111 L16 89 Z" fill="#658c55"/><path d="M60 104 L104 82 V89 L60 111 Z" fill="#2f4530"/></g><g><path d="M28 60 L60 44 L92 60 L60 76 Z" fill="#8fae80"/><path d="M28 60 L60 76 V83 L28 67 Z" fill="#658c55"/><path d="M60 76 L92 60 V67 L60 83 Z" fill="#2f4530"/></g><g><path d="M40 40 L60 30 L80 40 L60 50 Z" fill="#cdb07a"/><path d="M40 40 L60 50 V57 L40 47 Z" fill="#658c55"/><path d="M60 50 L80 40 V47 L60 57 Z" fill="#2f4530"/></g></g></g></svg>